<mxfile host="app.diagrams.net" modified="2024-02-02T14:18:41.488Z" agent="Mozilla/5.0 (Windows NT 10.0; Win64; x64) AppleWebKit/537.36 (KHTML, like Gecko) Chrome/121.0.0.0 Safari/537.36" etag="E_7005GDh5IcQ9k_nqJa" version="22.1.18" type="github">
  <diagram name="Page-1" id="2YBvvXClWsGukQMizWep">
    <mxGraphModel dx="1050" dy="522" grid="1" gridSize="10" guides="1" tooltips="1" connect="1" arrows="1" fold="1" page="1" pageScale="1" pageWidth="850" pageHeight="1100" math="0" shadow="0">
      <root>
        <mxCell id="0" />
        <mxCell id="1" parent="0" />
        <mxCell id="k_CAlymVmEuhgNOBEL12-4" value="environment" style="rounded=0;whiteSpace=wrap;html=1;fillColor=none;dashed=1;dashPattern=12 12;align=center;labelPosition=center;verticalLabelPosition=bottom;verticalAlign=top;" vertex="1" parent="1">
          <mxGeometry x="120" y="215" width="200" height="100" as="geometry" />
        </mxCell>
        <mxCell id="k_CAlymVmEuhgNOBEL12-3" value="" style="edgeStyle=orthogonalEdgeStyle;rounded=0;orthogonalLoop=1;jettySize=auto;html=1;" edge="1" parent="1" source="k_CAlymVmEuhgNOBEL12-1" target="k_CAlymVmEuhgNOBEL12-2">
          <mxGeometry relative="1" as="geometry" />
        </mxCell>
        <mxCell id="k_CAlymVmEuhgNOBEL12-1" value="auto.tfvars" style="rounded=1;whiteSpace=wrap;html=1;" vertex="1" parent="1">
          <mxGeometry x="140" y="240" width="70" height="50" as="geometry" />
        </mxCell>
        <mxCell id="k_CAlymVmEuhgNOBEL12-7" style="edgeStyle=orthogonalEdgeStyle;rounded=0;orthogonalLoop=1;jettySize=auto;html=1;entryX=0;entryY=0.5;entryDx=0;entryDy=0;" edge="1" parent="1" source="k_CAlymVmEuhgNOBEL12-2" target="k_CAlymVmEuhgNOBEL12-6">
          <mxGeometry relative="1" as="geometry" />
        </mxCell>
        <mxCell id="k_CAlymVmEuhgNOBEL12-8" style="edgeStyle=orthogonalEdgeStyle;rounded=0;orthogonalLoop=1;jettySize=auto;html=1;entryX=0;entryY=0.75;entryDx=0;entryDy=0;" edge="1" parent="1" source="k_CAlymVmEuhgNOBEL12-2" target="k_CAlymVmEuhgNOBEL12-5">
          <mxGeometry relative="1" as="geometry" />
        </mxCell>
        <mxCell id="k_CAlymVmEuhgNOBEL12-2" value="main.tf" style="rounded=1;whiteSpace=wrap;html=1;" vertex="1" parent="1">
          <mxGeometry x="240" y="240" width="65" height="50" as="geometry" />
        </mxCell>
        <mxCell id="k_CAlymVmEuhgNOBEL12-14" style="edgeStyle=orthogonalEdgeStyle;rounded=0;orthogonalLoop=1;jettySize=auto;html=1;entryX=0;entryY=0.5;entryDx=0;entryDy=0;" edge="1" parent="1" source="k_CAlymVmEuhgNOBEL12-5" target="k_CAlymVmEuhgNOBEL12-11">
          <mxGeometry relative="1" as="geometry" />
        </mxCell>
        <mxCell id="k_CAlymVmEuhgNOBEL12-16" style="edgeStyle=orthogonalEdgeStyle;rounded=0;orthogonalLoop=1;jettySize=auto;html=1;entryX=0;entryY=0.5;entryDx=0;entryDy=0;" edge="1" parent="1" source="k_CAlymVmEuhgNOBEL12-5" target="k_CAlymVmEuhgNOBEL12-12">
          <mxGeometry relative="1" as="geometry">
            <Array as="points">
              <mxPoint x="420" y="290" />
              <mxPoint x="490" y="290" />
            </Array>
          </mxGeometry>
        </mxCell>
        <mxCell id="k_CAlymVmEuhgNOBEL12-17" style="edgeStyle=orthogonalEdgeStyle;rounded=0;orthogonalLoop=1;jettySize=auto;html=1;entryX=0;entryY=0.5;entryDx=0;entryDy=0;" edge="1" parent="1" source="k_CAlymVmEuhgNOBEL12-5" target="k_CAlymVmEuhgNOBEL12-10">
          <mxGeometry relative="1" as="geometry">
            <Array as="points">
              <mxPoint x="420" y="150" />
            </Array>
          </mxGeometry>
        </mxCell>
        <mxCell id="k_CAlymVmEuhgNOBEL12-5" value="_var_.tf" style="rounded=1;whiteSpace=wrap;html=1;" vertex="1" parent="1">
          <mxGeometry x="360" y="200" width="65" height="50" as="geometry" />
        </mxCell>
        <mxCell id="k_CAlymVmEuhgNOBEL12-9" value="" style="edgeStyle=orthogonalEdgeStyle;rounded=0;orthogonalLoop=1;jettySize=auto;html=1;" edge="1" parent="1" source="k_CAlymVmEuhgNOBEL12-6" target="k_CAlymVmEuhgNOBEL12-5">
          <mxGeometry relative="1" as="geometry" />
        </mxCell>
        <mxCell id="k_CAlymVmEuhgNOBEL12-6" value="locals.tf" style="rounded=1;whiteSpace=wrap;html=1;" vertex="1" parent="1">
          <mxGeometry x="360" y="300" width="65" height="50" as="geometry" />
        </mxCell>
        <mxCell id="k_CAlymVmEuhgNOBEL12-10" value="module1" style="shape=parallelogram;perimeter=parallelogramPerimeter;whiteSpace=wrap;html=1;fixedSize=1;" vertex="1" parent="1">
          <mxGeometry x="480" y="130" width="90" height="40" as="geometry" />
        </mxCell>
        <mxCell id="k_CAlymVmEuhgNOBEL12-11" value="module2" style="shape=parallelogram;perimeter=parallelogramPerimeter;whiteSpace=wrap;html=1;fixedSize=1;" vertex="1" parent="1">
          <mxGeometry x="480" y="205" width="90" height="40" as="geometry" />
        </mxCell>
        <mxCell id="k_CAlymVmEuhgNOBEL12-12" value="module3" style="shape=parallelogram;perimeter=parallelogramPerimeter;whiteSpace=wrap;html=1;fixedSize=1;" vertex="1" parent="1">
          <mxGeometry x="480" y="275" width="90" height="40" as="geometry" />
        </mxCell>
        <mxCell id="k_CAlymVmEuhgNOBEL12-20" value="" style="curved=1;endArrow=classic;html=1;rounded=0;" edge="1" parent="1" target="k_CAlymVmEuhgNOBEL12-10">
          <mxGeometry width="50" height="50" relative="1" as="geometry">
            <mxPoint x="560" y="230" as="sourcePoint" />
            <mxPoint x="610" y="180" as="targetPoint" />
            <Array as="points">
              <mxPoint x="610" y="230" />
              <mxPoint x="620" y="170" />
            </Array>
          </mxGeometry>
        </mxCell>
        <mxCell id="k_CAlymVmEuhgNOBEL12-21" value="" style="curved=1;endArrow=classic;html=1;rounded=0;exitX=1;exitY=0.75;exitDx=0;exitDy=0;" edge="1" parent="1" source="k_CAlymVmEuhgNOBEL12-11" target="k_CAlymVmEuhgNOBEL12-12">
          <mxGeometry width="50" height="50" relative="1" as="geometry">
            <mxPoint x="630" y="350" as="sourcePoint" />
            <mxPoint x="590" y="365" as="targetPoint" />
            <Array as="points">
              <mxPoint x="560" y="230" />
              <mxPoint x="650" y="280" />
            </Array>
          </mxGeometry>
        </mxCell>
      </root>
    </mxGraphModel>
  </diagram>
</mxfile>
